<?xml version="1.0" encoding="UTF-8"?>
<!DOCTYPE svg PUBLIC "-//W3C//DTD SVG 1.0//EN" "http://www.w3.org/TR/2001/REC-SVG-20010904/DTD/svg10.dtd">
<!-- Creator: CorelDRAW X7 -->
<svg xmlns="http://www.w3.org/2000/svg" xml:space="preserve" width="100px" height="100px" version="1.0" style="shape-rendering:geometricPrecision; text-rendering:geometricPrecision; image-rendering:optimizeQuality; fill-rule:evenodd; clip-rule:evenodd"
viewBox="0 0 10000 10000"
 xmlns:xlink="http://www.w3.org/1999/xlink">
 <defs>
  <style type="text/css">
   <![CDATA[
    .fil0 {fill:#FEFEFE}
    .fil1 {fill:#F1941A}
   ]]>
  </style>
 </defs>
 <g id="Layer_x0020_1">
  <metadata id="CorelCorpID_0Corel-Layer"/>
  <circle class="fil0" cx="4967" cy="4992" r="4953"/>
  <path class="fil1" d="M2526 3484l0 3016c0,574 143,717 646,717l3661 0c574,0 718,-144 718,-717l0 -3016c0,-789 -431,-718 -1149,-718 0,718 0,503 0,933l-574 0c0,-430 0,-215 0,-933l-1568 1c1,625 0,503 0,932l-586 0c0,-430 0,-215 0,-933 -717,0 -1148,-71 -1148,718l0 0z"/>
  <path class="fil1" d="M3818 3628l280 0c0,-1292 -137,-2297 940,-2297 1077,-31 933,1435 933,2297l287 0c0,-1364 100,-2563 -1220,-2584 -1148,0 -1270,745 -1220,2584z"/>
 </g>
</svg>
