<?xml version="1.0" encoding="UTF-8"?>
<!DOCTYPE svg PUBLIC "-//W3C//DTD SVG 1.0//EN" "http://www.w3.org/TR/2001/REC-SVG-20010904/DTD/svg10.dtd">
<!-- Creator: CorelDRAW X7 -->
<svg xmlns="http://www.w3.org/2000/svg" xml:space="preserve" width="110px" height="110px" version="1.0" style="shape-rendering:geometricPrecision; text-rendering:geometricPrecision; image-rendering:optimizeQuality; fill-rule:evenodd; clip-rule:evenodd"
viewBox="0 0 11000 11000"
 xmlns:xlink="http://www.w3.org/1999/xlink">
 <defs>
  <style type="text/css">
   <![CDATA[
    .fil0 {fill:#6BB536}
    .fil1 {fill:#FEFEFE}
   ]]>
  </style>
 </defs>
 <g id="Layer_x0020_1">
  <metadata id="CorelCorpID_0Corel-Layer"/>
  <g id="_253686940048">
   <g id="_390574431840">
    <ellipse class="fil0" cx="5496" cy="5495" rx="5445" ry="5470"/>
    <path class="fil1" d="M6560 8078c0,-177 -50,-506 253,-506l558 0c126,0 227,101 227,228 0,202 51,531 -227,531l-583 0c-127,0 -228,-126 -228,-253l0 0zm-1595 0c0,-177 -51,-506 278,-506l507 0c304,0 278,329 278,506 0,76 -50,152 -101,203 -25,25 -76,50 -152,50 -127,0 -582,26 -658,-25 -26,0 -26,0 -51,-25 0,0 -101,-76 -101,-203zm-785 253l-558 0c-278,0 -228,-329 -228,-531 0,-127 102,-228 228,-228l558 0c303,0 253,329 253,506 0,127 -127,253 -253,253l0 0zm785 -1570c0,-253 -51,-532 329,-532 278,0 734,-76 734,254 0,228 51,531 -304,531l-481 0c-152,0 -278,-101 -278,-253zm1595 -25c0,-228 -50,-507 304,-507 734,0 734,-25 734,532 0,152 -126,253 -278,253l-481 0c-178,0 -279,-101 -279,-278zm-2406 278l-481 0c-329,0 -279,-303 -279,-531 0,-304 431,-254 710,-254 379,0 329,279 329,507 0,177 -101,278 -279,278zm811 -1570c0,-177 -51,-532 253,-532l532 0c329,0 278,355 278,532 0,127 -126,253 -253,253l-557 0c-127,0 -253,-126 -253,-253l0 0zm1595 0c0,-177 -50,-532 253,-532l532 0c304,0 253,355 253,532 0,152 -101,253 -227,253l-583 0c-127,0 -228,-126 -228,-253l0 0zm-2380 253l-558 0c-278,0 -228,-354 -228,-531 0,-127 102,-254 254,-254l532 0c303,0 253,355 253,532 0,127 -101,253 -253,253zm-786 -1570l0 -1342c0,-127 102,-253 228,-253l3749 0c126,0 227,126 227,253l0 1342c0,127 -126,254 -253,254l-3697 0c-127,0 -254,-127 -254,-254l0 0zm-557 -1367l0 5369c0,354 355,760 760,760l3799 0c228,0 405,-127 506,-254 76,-50 127,-101 152,-202 51,-76 76,-203 76,-304l0 -5369c0,-380 -354,-760 -734,-760l-3799 0c-405,0 -760,380 -760,760l0 0z"/>
   </g>
  </g>
 </g>
</svg>
