<?xml version="1.0" encoding="UTF-8"?>
<!DOCTYPE svg PUBLIC "-//W3C//DTD SVG 1.0//EN" "http://www.w3.org/TR/2001/REC-SVG-20010904/DTD/svg10.dtd">
<!-- Creator: CorelDRAW X7 -->
<svg xmlns="http://www.w3.org/2000/svg" xml:space="preserve" width="20px" height="20px" version="1.0" style="shape-rendering:geometricPrecision; text-rendering:geometricPrecision; image-rendering:optimizeQuality; fill-rule:evenodd; clip-rule:evenodd"
viewBox="0 0 2000 2000"
 xmlns:xlink="http://www.w3.org/1999/xlink">
 <defs>
  <style type="text/css">
   <![CDATA[
    .fil0 {fill:#6BB536}
   ]]>
  </style>
 </defs>
 <g id="Layer_x0020_1">
  <metadata id="CorelCorpID_0Corel-Layer"/>
  <path class="fil0" d="M1184 675c0,14 188,185 8,645 -5,9 -7,40 20,50 71,23 92,-27 124,-96 84,-253 55,-473 -32,-610 -19,-31 -90,-67 -119,-8 -3,3 -3,14 -1,19z"/>
  <path class="fil0" d="M80 1322c97,19 235,8 341,8 131,-1 81,-10 237,120 46,38 293,275 344,280 26,2 48,-3 63,-23 28,-36 29,-1280 5,-1400 -11,-37 -51,-46 -91,-15 -18,14 -57,46 -75,60l-287 247c-106,92 -71,83 -188,83 -385,-1 -381,-29 -381,140l0 402c-1,68 4,93 32,98z"/>
  <path class="fil0" d="M1572 362c0,27 360,355 15,1237 -9,18 -13,77 37,96 138,46 178,-50 240,-183 160,-486 104,-908 -63,-1169 -35,-61 -172,-131 -228,-17 -4,7 -6,27 -1,36z"/>
  <path class="fil0" d="M1320 503c0,21 286,281 13,980 -8,14 -11,61 29,76 109,36 140,-40 190,-145 126,-385 82,-719 -50,-926 -28,-48 -137,-104 -181,-13 -3,5 -4,21 -1,28z"/>
 </g>
</svg>
