<?xml version="1.0" encoding="UTF-8"?>
<!DOCTYPE svg PUBLIC "-//W3C//DTD SVG 1.0//EN" "http://www.w3.org/TR/2001/REC-SVG-20010904/DTD/svg10.dtd">
<!-- Creator: CorelDRAW X7 -->
<svg xmlns="http://www.w3.org/2000/svg" xml:space="preserve" width="228px" height="33px" version="1.0" style="shape-rendering:geometricPrecision; text-rendering:geometricPrecision; image-rendering:optimizeQuality; fill-rule:evenodd; clip-rule:evenodd"
viewBox="0 0 22800 3300"
 xmlns:xlink="http://www.w3.org/1999/xlink">
 <defs>
  <style type="text/css">
   <![CDATA[
    .fil0 {fill:#6BB536}
    .fil1 {fill:#FEFEFE;fill-rule:nonzero}
    .fil2 {fill:#FEFEFE;fill-rule:nonzero}
   ]]>
  </style>
 </defs>
 <g id="Layer_x0020_1">
  <metadata id="CorelCorpID_0Corel-Layer"/>
  <rect class="fil0" x="12477" y="674" width="8245" height="2466"/>
  <polygon class="fil1" points="2505,2696 2505,260 2715,260 2715,2696 "/>
  <path id="_1_0" class="fil1" d="M3485 2301c0,108 15,180 45,215 30,34 82,51 159,51 40,0 81,-6 124,-19 43,-13 92,-35 144,-62l0 175c-49,23 -98,39 -147,51 -48,11 -96,16 -145,16 -133,0 -228,-33 -283,-96 -55,-64 -81,-175 -81,-335l0 -1061 -344 0 0 -150 351 0 0 -523 178 0 0 523 432 0 0 150 -432 0 0 1065 -1 0 0 0z"/>
  <path id="_2_1" class="fil1" d="M4345 2399c82,55 162,95 240,122 79,25 161,38 242,38 103,0 184,-23 243,-72 60,-49 89,-116 89,-201 0,-124 -107,-227 -323,-305 -56,-21 -99,-37 -132,-49 -118,-46 -207,-106 -266,-181 -59,-73 -89,-160 -89,-262 0,-130 47,-236 143,-319 93,-82 217,-124 367,-124 70,0 141,13 212,34 73,21 148,57 226,103l0 185c-81,-52 -158,-92 -233,-118 -74,-26 -147,-39 -216,-39 -95,0 -173,25 -236,77 -61,52 -92,117 -92,198 0,71 29,130 86,179 55,48 160,99 312,152 164,57 276,119 336,186 61,66 90,155 90,265 0,142 -48,256 -141,336 -96,82 -226,124 -391,124 -84,0 -164,-12 -239,-36 -76,-23 -151,-59 -228,-105l0 -188 0 0 0 0z"/>
  <path id="_3_2" class="fil1" d="M6339 2696l0 -1459 -279 0 0 -150 279 0 0 -178c0,-233 44,-405 133,-515 88,-108 227,-163 416,-163 25,0 52,2 80,5 28,4 60,9 94,16l0 153c-26,-5 -52,-11 -78,-13 -26,-3 -51,-5 -74,-5 -138,0 -238,37 -300,109 -59,72 -89,193 -89,363l0 228 296 0 0 150 -296 0 0 1459 -182 0 0 0 0 0z"/>
  <path id="_4_3" class="fil1" d="M7066 2696l0 -1609 178 0 0 398c100,-154 191,-263 274,-329 84,-65 168,-97 258,-97 49,0 96,10 142,29 45,20 94,52 144,94l-98 170c-49,-39 -93,-69 -133,-87 -40,-18 -79,-28 -117,-28 -71,0 -144,35 -218,105 -75,69 -159,182 -252,337l0 1017 -178 0 0 0 0 0z"/>
  <path id="_5_4" class="fil1" d="M9547 2520c-105,71 -207,126 -307,160 -100,36 -203,52 -309,52 -239,0 -433,-78 -579,-237 -145,-158 -219,-368 -219,-629 0,-245 69,-441 207,-589 137,-147 318,-221 542,-221 209,0 377,70 505,211 128,140 191,326 191,559l0 7 -1256 0 0 19c0,210 57,380 170,510 112,130 258,195 436,195 107,0 210,-18 309,-57 99,-36 201,-96 310,-178l0 197 0 0 0 1zm-1202 -841l1022 0c-18,-142 -73,-256 -164,-341 -93,-86 -204,-129 -334,-129 -134,0 -249,44 -346,130 -98,88 -158,201 -178,340l0 0 0 0z"/>
  <path id="_6_5" class="fil1" d="M11253 2520c-105,71 -208,126 -308,160 -100,36 -202,52 -308,52 -241,0 -434,-78 -580,-237 -145,-158 -217,-368 -217,-629 0,-245 68,-441 205,-589 138,-147 319,-221 543,-221 209,0 377,70 504,211 128,140 191,326 191,559l0 7 -1255 0 0 19c0,210 56,380 169,510 113,130 258,195 437,195 107,0 210,-18 309,-57 98,-36 202,-96 310,-178l0 197 0 0 0 1zm-1202 -841l1022 0c-17,-142 -73,-256 -165,-341 -92,-86 -203,-129 -333,-129 -134,0 -250,44 -347,130 -98,88 -157,201 -177,340l0 0 0 0z"/>
  <path id="_7_6" class="fil1" d="M11851 2696l-96 0 0 -356 231 0 0 268c0,129 -17,231 -52,306 -36,76 -95,142 -179,200l0 -139c33,-26 57,-58 73,-98 15,-41 23,-92 23,-156l0 -25 0 0z"/>
  <path class="fil1" d="M4272 523l0 -259 239 0 0 206c0,110 -13,190 -40,239 -34,66 -90,116 -165,150l-54 -87c46,-19 79,-47 101,-84 21,-39 33,-93 36,-165l-117 0z"/>
  <polygon class="fil2" points="19958,3139 19959,2887 20165,2888 20165,3139 "/>
  <polygon class="fil2" points="20025,2628 19914,674 20206,674 20102,2628 "/>
  <path class="fil2" d="M18333 2285c58,38 113,66 169,85 55,18 111,27 169,27 72,0 129,-17 170,-51 42,-34 62,-81 62,-141 0,-87 -75,-158 -226,-213 -39,-15 -70,-26 -92,-35 -83,-32 -145,-74 -187,-126 -41,-51 -62,-113 -62,-183 0,-92 33,-166 100,-224 66,-58 152,-87 258,-87 48,0 97,8 148,23 51,16 104,40 158,72l0 130c-57,-37 -111,-64 -163,-82 -52,-19 -103,-28 -151,-28 -67,0 -122,18 -165,54 -43,37 -65,83 -65,139 0,50 20,91 59,125 40,34 113,70 220,107 114,40 193,83 235,130 42,47 63,108 63,185 0,100 -33,179 -99,236 -67,58 -158,87 -273,87 -59,0 -115,-9 -168,-25 -54,-16 -107,-41 -160,-75l0 -130z"/>
  <polygon class="fil2" points="17679,2270 17206,1362 17347,1362 17747,2130 18122,1362 18251,1362 17421,3057 17294,3057 "/>
  <path class="fil2" d="M16891 2380c-63,48 -121,83 -175,103 -54,21 -111,32 -170,32 -93,0 -168,-28 -226,-81 -58,-54 -87,-124 -87,-209 0,-125 57,-223 169,-295 113,-71 275,-112 486,-120l0 -120c0,-85 -20,-146 -60,-185 -40,-39 -104,-58 -192,-58 -55,0 -110,11 -165,33 -55,22 -116,57 -180,105l0 -123c63,-43 124,-74 182,-95 58,-20 116,-30 173,-30 129,0 223,30 281,90 58,60 86,157 86,292l0 591c0,25 4,43 10,55 7,12 17,17 31,17 19,0 53,-21 101,-63 12,-11 20,-18 26,-23l1 114c-36,34 -70,60 -102,77 -30,17 -58,25 -82,25 -35,0 -62,-10 -78,-31 -17,-21 -27,-54 -29,-101zm-3 -117l0 -353c-162,2 -291,31 -385,88 -95,56 -142,130 -142,222 0,58 20,104 59,137 38,33 92,50 161,50 46,0 94,-12 144,-35 49,-23 104,-59 163,-109z"/>
  <polygon class="fil2" points="14839,2512 14361,1362 14493,1362 14866,2287 15226,1362 15297,1362 15631,2287 16027,1362 16164,1362 15660,2512 15589,2512 15259,1595 14906,2512 "/>
  <polygon class="fil2" points="14089,2490 14089,782 14216,782 14216,2490 "/>
  <path class="fil2" d="M13626 2380c-63,48 -121,83 -175,103 -55,21 -111,32 -171,32 -92,0 -168,-28 -225,-81 -58,-54 -87,-124 -87,-209 0,-125 56,-223 169,-295 113,-71 275,-112 486,-120l0 -120c0,-85 -20,-146 -60,-185 -41,-39 -104,-58 -192,-58 -55,0 -110,11 -165,33 -55,22 -116,57 -181,105l0 -123c64,-43 124,-74 183,-95 58,-20 116,-30 173,-30 129,0 222,30 280,90 58,60 87,157 87,292l0 591c0,25 3,43 10,55 6,12 17,17 31,17 19,0 53,-21 101,-63 11,-11 20,-18 26,-23l1 114c-37,34 -71,60 -102,77 -31,17 -58,25 -82,25 -36,0 -62,-10 -79,-31 -16,-21 -26,-54 -28,-101zm-3 -117l0 -353c-163,2 -291,31 -386,88 -94,56 -141,130 -141,222 0,58 19,104 58,137 39,33 93,50 162,50 46,0 94,-12 143,-35 50,-23 105,-59 164,-109z"/>
 </g>
</svg>
