<?xml version="1.0" encoding="UTF-8"?>
<!DOCTYPE svg PUBLIC "-//W3C//DTD SVG 1.0//EN" "http://www.w3.org/TR/2001/REC-SVG-20010904/DTD/svg10.dtd">
<!-- Creator: CorelDRAW X7 -->
<svg xmlns="http://www.w3.org/2000/svg" xml:space="preserve" width="20px" height="20px" version="1.0" style="shape-rendering:geometricPrecision; text-rendering:geometricPrecision; image-rendering:optimizeQuality; fill-rule:evenodd; clip-rule:evenodd"
viewBox="0 0 2000 2000"
 xmlns:xlink="http://www.w3.org/1999/xlink">
 <defs>
  <style type="text/css">
   <![CDATA[
    .fil0 {fill:#6BB536}
   ]]>
  </style>
 </defs>
 <g id="Layer_x0020_1">
  <metadata id="CorelCorpID_0Corel-Layer"/>
  <path class="fil0" d="M908 1443l162 3 -3 161 -161 -2 2 -162zm-284 -664c0,-80 39,-154 76,-204 169,-227 690,-139 652,218 -9,84 -54,140 -92,184 -22,27 -44,45 -71,68 -51,41 -41,41 -71,68 -58,54 -64,115 -65,212l-136 0c-2,-164 32,-235 118,-314l111 -104c255,-272 -315,-553 -380,-112l-142 -16zm279 -435c-378,56 -622,400 -570,757 48,336 360,632 762,570 334,-51 624,-357 567,-756 -48,-336 -358,-630 -759,-571z"/>
  <path class="fil0" d="M112 1096c-29,-234 57,-519 207,-675 19,-20 30,-39 49,-58 244,-231 598,-323 920,-205 323,119 549,389 588,738 27,236 -55,516 -206,674 -19,20 -30,39 -50,57 -63,60 -112,94 -192,143 -203,125 -506,144 -728,63 -106,-39 -213,-98 -280,-162 -72,-69 -31,-22 -111,-111 -101,-112 -176,-299 -197,-464zm834 -1048l114 0c118,8 235,37 343,91 147,73 211,134 316,246 144,153 221,381 222,608l0 15c-1,139 -30,276 -90,396 -74,147 -134,211 -246,316 -153,144 -381,221 -608,222l-15 0c-139,-1 -276,-30 -396,-90 -148,-74 -211,-134 -316,-246 -46,-49 -105,-146 -134,-206 -73,-147 -89,-278 -89,-449 0,-121 49,-281 91,-364 45,-90 114,-191 185,-263 167,-166 393,-262 623,-276z"/>
  <path class="fil0" d="M912 1449l152 0 0 152 -152 0 0 -152zm-6 156l161 2 3 -161 -162 -3 -2 162z"/>
 </g>
</svg>
