<?xml version="1.0" encoding="UTF-8"?>
<!DOCTYPE svg PUBLIC "-//W3C//DTD SVG 1.0//EN" "http://www.w3.org/TR/2001/REC-SVG-20010904/DTD/svg10.dtd">
<!-- Creator: CorelDRAW X7 -->
<svg xmlns="http://www.w3.org/2000/svg" xml:space="preserve" width="591px" height="591px" version="1.0" style="shape-rendering:geometricPrecision; text-rendering:geometricPrecision; image-rendering:optimizeQuality; fill-rule:evenodd; clip-rule:evenodd"
viewBox="0 0 591000 591000"
 xmlns:xlink="http://www.w3.org/1999/xlink">
 <defs>
  <style type="text/css">
   <![CDATA[
    .fil2 {fill:#6BB536}
    .fil1 {fill:#549834}
    .fil0 {fill:#6BB536}
   ]]>
  </style>
 </defs>
 <g id="Layer_x0020_1">
  <metadata id="CorelCorpID_0Corel-Layer"/>
  <path class="fil0" d="M314607 335277c-19729,22 -40548,9 -61681,9 76,-2196 0,-74435 0,-83882 22316,-16 33097,1 61742,30 -118,21905 -36,66580 -61,83843l0 0zm-152140 -75150c33,38817 -5,73569 -15,100378l245873 0c-440,-20499 -273,-64895 -98,-100271 -35304,-33036 -83402,-78041 -122905,-115058 -3759,3827 -113085,105855 -122855,114951l0 0z"/>
  <path class="fil0" d="M350152 101183l187 63764c-22398,-20958 -45381,-42565 -68024,-63697 -6116,5674 -116750,108455 -128959,120662 0,3176 -2,13408 -2,26100 14075,-13393 102895,-94765 128866,-120579 25232,23976 120909,113282 132762,124249 29,-11924 47,-20277 47,-26215 -9765,-9127 -18441,-17245 -30128,-28182 -8,-13497 -19,-76781 -19,-96102 -14412,-9652 -20317,-9652 -34731,0l1 0z"/>
  <path class="fil1" d="M108537 370920l0 88672c2749,-1320 8532,-2459 11951,-3546 3931,-1249 7155,-2390 11791,-3705 18147,-5149 26969,-11196 45718,-1086 42805,23083 56825,26334 106314,33152 28019,3858 25880,4906 54410,-4692 31812,-10701 44208,-13272 76587,-29303 12944,-6410 53563,-30989 66343,-39546 9718,-6504 16012,-10453 16012,-22729 0,-11097 -14219,-17257 -32347,-9962 -3753,1511 -8910,3979 -12421,4797 2800,-5835 -7205,-19522 -32713,-6026 0,-11496 -10454,-11191 -18079,-11191 -8670,0 -21082,7456 -27848,10890 -4536,2303 -24229,12304 -25527,14075 15438,1284 37544,19949 23546,44208 -6110,10593 -16082,11778 -26989,11752 -35782,-86 -61195,5413 -95864,-10028 -8320,-3704 -12486,-6513 -18386,-13466 -3359,-3959 -10192,-15050 -11442,-20414 2609,1749 5070,3133 8020,4894 17464,10417 35939,20628 56586,23478 19025,2628 44350,1782 64548,917 8790,-376 13685,-5582 12479,-13296 -1411,-9021 -5383,-11979 -12727,-14903 -19875,-7911 -46667,-4763 -63973,-16090 -5396,-3532 -9906,-8687 -14985,-12564 -40573,-30962 -72205,-39372 -123240,-22483 -6670,2208 -13313,5082 -19399,8149 -6489,3272 -12743,6281 -18365,10046l0 0z"/>
  <path class="fil2" d="M294357 5139c160772,0 291105,130334 291105,291106 0,160772 -130333,291105 -291105,291105 -160772,0 -291105,-130333 -291105,-291105 0,-160772 130333,-291106 291105,-291106zm0 18047c150807,0 273059,122253 273059,273059 0,150804 -122252,273057 -273059,273057 -150805,0 -273057,-122252 -273057,-273057 0,-150806 122252,-273059 273057,-273059z"/>
 </g>
</svg>
