<?xml version="1.0" encoding="UTF-8"?>
<!DOCTYPE svg PUBLIC "-//W3C//DTD SVG 1.0//EN" "http://www.w3.org/TR/2001/REC-SVG-20010904/DTD/svg10.dtd">
<!-- Creator: CorelDRAW X7 -->
<svg xmlns="http://www.w3.org/2000/svg" xml:space="preserve" width="591px" height="591px" version="1.0" style="shape-rendering:geometricPrecision; text-rendering:geometricPrecision; image-rendering:optimizeQuality; fill-rule:evenodd; clip-rule:evenodd"
viewBox="0 0 591000 591000"
 xmlns:xlink="http://www.w3.org/1999/xlink">
 <defs>
  <style type="text/css">
   <![CDATA[
    .fil0 {fill:#6BB536}
    .fil1 {fill:#949494}
    .fil2 {fill:#C5C6C6;fill-rule:nonzero}
   ]]>
  </style>
 </defs>
 <g id="Layer_x0020_1">
  <metadata id="CorelCorpID_0Corel-Layer"/>
  <path class="fil0" d="M295561 6834c159373,0 288572,129199 288572,288571 0,159373 -129199,288572 -288572,288572 -159372,0 -288571,-129199 -288571,-288572 0,-159372 129199,-288571 288571,-288571zm0 17890c149494,0 270682,121189 270682,270681 0,149492 -121188,270681 -270682,270681 -149492,0 -270680,-121188 -270680,-270681 0,-149492 121188,-270681 270680,-270681z"/>
  <path class="fil1" d="M191832 129662c8791,5257 13574,14785 13830,25289l164679 -17c33548,-5 63454,9029 64027,69063l-10 169421c0,0 6052,60963 -35442,60958l-171114 -47c-35219,-11 -71628,-3078 -72094,-60490l760 -144650c-14597,94 -24979,-3227 -33118,-12349l-902 161405c-213,38424 12703,88565 103327,88233 90869,155 124232,-45 178702,205 30082,28 61889,-9889 61749,-81256l660 -183159c134,-37164 -13747,-92980 -70352,-92929 -12923,-110 -204702,323 -204702,323l0 0z"/>
  <path class="fil1" d="M205682 182827c-35,5158 -55,32217 26,62901l196378 26 26 -34417c-10,-7460 -4124,-28532 -33180,-28532l-163250 22 0 0z"/>
  <path class="fil1" d="M210960 276998l23466 -9c4455,-3 11006,1574 11123,10519l16 36100c1,5162 -5160,8396 -13628,8409l-21177 -5c-3620,0 -14102,15 -14114,-8646l-12 -36108c-2,-8923 6422,-10265 14326,-10260l0 0z"/>
  <path class="fil1" d="M379518 275925l23466 -10c4454,-2 11007,1573 11123,10520l15 36100c4,5161 -5161,8394 -13627,8407l-21178 -3c-3619,-1 -14101,16 -14114,-8647l-12 -36109c-1,-8922 6423,-10264 14327,-10258z"/>
  <path class="fil1" d="M296733 277413l23466 -9c4455,-2 11004,1573 11122,10521l16 36097c1,5163 -5161,8395 -13628,8410l-21178 -6c-3620,0 -14102,16 -14115,-8647l-9 -36107c-4,-8923 6421,-10265 14326,-10259z"/>
  <path class="fil1" d="M210546 361940l23466 -9c4455,-3 11005,1574 11122,10520l16 36099c3,5163 -5159,8396 -13627,8409l-21178 -5c-3620,0 -14102,17 -14114,-8646l-11 -36108c-2,-8924 6421,-10265 14326,-10260l0 0z"/>
  <path class="fil1" d="M379104 360868l23466 -10c4454,-3 11006,1573 11123,10520l15 36100c3,5162 -5160,8395 -13627,8408l-21178 -4c-3620,-1 -14101,15 -14114,-8648l-12 -36107c-2,-8923 6422,-10265 14327,-10259l0 0z"/>
  <path class="fil1" d="M296319 362355l23466 -9c4455,-2 11005,1573 11121,10521l15 36098c4,5162 -5157,8394 -13626,8409l-21178 -6c-3619,0 -14102,16 -14114,-8647l-11 -36107c-3,-8923 6422,-10264 14327,-10260l0 1z"/>
  <path class="fil2" d="M193006 192563l-61722 0c366,12607 3153,22193 8434,28717 5245,6524 12800,9769 22592,9769 3137,0 24552,33 25018,31l19 14767c-11619,-9 -18020,22 -27934,22 -15624,0 -27360,-4830 -35244,-14526 -7885,-9693 -11810,-24144 -11810,-43388 0,-17916 3814,-32182 11442,-42763 7629,-10580 17862,-15888 30772,-15888 11809,0 21235,4718 28239,14157 7005,9399 10525,22080 10525,37969 0,3392 0,5825 -36,7262 -36,1437 -147,2728 -295,3871l0 0zm-17494 -13050l0 -848c0,-11242 -1796,-19795 -5354,-25693 -3594,-5898 -8764,-8848 -15587,-8848 -7079,0 -12580,2950 -16466,8810 -3924,5862 -6272,14709 -7042,26579l44450 0 -1 0z"/>
 </g>
</svg>
