<?xml version="1.0" encoding="UTF-8"?>
<!DOCTYPE svg PUBLIC "-//W3C//DTD SVG 1.0//EN" "http://www.w3.org/TR/2001/REC-SVG-20010904/DTD/svg10.dtd">
<!-- Creator: CorelDRAW X7 -->
<svg xmlns="http://www.w3.org/2000/svg" xml:space="preserve" width="59px" height="59px" version="1.0" style="shape-rendering:geometricPrecision; text-rendering:geometricPrecision; image-rendering:optimizeQuality; fill-rule:evenodd; clip-rule:evenodd"
viewBox="0 0 59000 59000"
 xmlns:xlink="http://www.w3.org/1999/xlink">
 <defs>
  <style type="text/css">
   <![CDATA[
    .str0 {stroke:#D9DADA;stroke-width:899.16}
    .fil1 {fill:#D9DADA}
    .fil0 {fill:#C5C6C6}
    .fil3 {fill:#B2B3B3}
    .fil2 {fill:#949494}
    .fil4 {fill:#B2B3B3}
    .fil6 {fill:#C5C6C6}
    .fil7 {fill:#EBECEC}
    .fil5 {fill:#FEFEFE}
   ]]>
  </style>
 </defs>
 <g id="Layer_x0020_1">
  <metadata id="CorelCorpID_0Corel-Layer"/>
  <path class="fil0" d="M34819 35638l-13138 -4064c-1731,-535 -2388,-1669 -1865,-3361l5601 -18106c477,-1543 1600,-2291 3322,-1757l13369 4134c1204,373 1914,1218 1948,2238 10,281 -128,860 -231,1194l-5535 17895c-272,877 -482,1299 -1239,1765 -603,370 -1488,292 -2232,62zm-11494 -26933l-6026 19483c-392,1266 126,2946 1043,3932 230,247 775,807 1176,932l16251 5027c399,122 1121,-25 1456,-96 1340,-283 2731,-1394 3124,-2664l6026 -19483c392,-1268 -126,-2947 -1043,-3932 -230,-248 -775,-808 -1178,-932l-16251 -5027c-670,-208 -2118,230 -2719,599 -815,501 -1563,1204 -1859,2161l0 0z"/>
  <path class="fil1 str0" d="M26603 11170l-474 1535c-309,997 497,2300 1583,2636l11295 3494c1087,336 2488,-284 2796,-1281 289,-933 607,-1519 460,-2297 -69,-355 -102,-372 -281,-679 -164,-280 -159,-326 -429,-564 -175,-157 -447,-389 -719,-472l-11641 -3602c-485,-150 -1140,9 -1539,197 -400,190 -913,588 -1051,1033l0 0z"/>
  <path class="fil0" d="M34526 25975l-1786 5772c-204,662 157,1498 858,1715 1096,339 1953,785 2691,400 290,-152 518,-362 641,-762l1851 -5982c106,-341 -22,-764 -178,-999 -436,-652 -1264,-781 -2154,-1056 -867,-269 -1677,116 -1923,912l0 0z"/>
  <path class="fil2" d="M27322 28852c-247,796 -593,1483 -274,2162 363,770 1326,891 2385,1218 671,207 1511,-191 1702,-807 290,-935 725,-1737 264,-2430 -436,-653 -1264,-781 -2154,-1056 -867,-268 -1677,116 -1923,913l0 0z"/>
  <path class="fil0" d="M30204 19534c-246,795 -593,1483 -273,2163 362,770 1326,889 2384,1217 671,207 1512,-192 1702,-808 289,-934 725,-1737 263,-2428 -434,-653 -1264,-781 -2152,-1056 -867,-269 -1677,115 -1924,912l0 0z"/>
  <path class="fil0" d="M28763 24194c-246,794 -593,1483 -273,2161 362,771 1325,890 2385,1218 670,208 1511,-192 1701,-808 289,-935 725,-1737 263,-2429 -435,-652 -1263,-781 -2152,-1056 -868,-269 -1678,116 -1924,914l0 0z"/>
  <path class="fil0" d="M35966 21317c-245,795 -592,1483 -272,2163 362,769 1325,889 2385,1216 670,208 1510,-191 1701,-807 289,-934 725,-1737 263,-2430 -435,-652 -1263,-781 -2152,-1056 -868,-267 -1678,116 -1925,914l0 0z"/>
  <path class="fil0" d="M21559 27069c-246,796 -593,1483 -273,2163 362,771 1325,890 2385,1217 670,207 1511,-191 1701,-807 289,-935 725,-1737 264,-2429 -436,-652 -1264,-781 -2153,-1057 -868,-268 -1678,117 -1924,913z"/>
  <path class="fil0" d="M24441 17752c-246,794 -592,1483 -273,2162 363,770 1326,889 2386,1217 670,208 1510,-191 1701,-808 289,-934 725,-1737 263,-2428 -435,-653 -1264,-781 -2152,-1056 -869,-269 -1678,115 -1925,913l0 0z"/>
  <path class="fil0" d="M23001 22411c-247,795 -594,1483 -274,2161 362,771 1326,891 2385,1218 671,208 1511,-191 1702,-807 289,-935 724,-1737 263,-2430 -435,-652 -1263,-781 -2153,-1056 -867,-268 -1677,116 -1923,914l0 0z"/>
  <path class="fil3" d="M16203 25533l290 0 0 23033 -290 0 0 -23033zm2511 -918c-403,0 -955,22 -1484,7 -540,-17 -1169,-4 -1687,-133 -615,-153 -1369,-599 -1369,-599l0 18688c0,1329 -172,3962 280,5033 1131,2678 3512,2258 5805,2258 6230,0 12459,0 18688,0 1252,0 4106,145 5104,-206 1185,-420 2194,-1517 2396,-2973 83,-591 32,-4359 32,-5271 -3396,0 -6792,0 -10188,0 -1591,0 -3260,148 -4451,-668 -1233,-845 -1005,-2284 -1005,-4064 0,-1878 -154,-3116 1130,-3987 1166,-790 2833,-649 4423,-649 3379,0 6760,0 10139,0l0 -7436 -27813 0 0 0z"/>
  <path class="fil4" d="M29755 720c15925,0 28836,12910 28836,28835 0,15926 -12911,28836 -28836,28836 -15925,0 -28836,-12910 -28836,-28836 0,-15925 12911,-28835 28836,-28835zm0 1788c14939,0 27048,12110 27048,27047 0,14938 -12109,27048 -27048,27048 -14938,0 -27048,-12110 -27048,-27048 0,-14937 12110,-27047 27048,-27047z"/>
  <polygon class="fil5" points="16203,48566 16493,48566 16493,25533 16203,25533 "/>
  <path class="fil6" d="M34650 36784c0,-570 180,-848 433,-1161 823,-1023 2849,-523 2849,1113 0,452 -218,812 -426,1070 -874,1086 -2856,399 -2856,-1022l0 0zm1237 -1814c-2294,546 -1515,3983 782,3493 860,-184 1607,-1049 1375,-2130 -183,-856 -1069,-1621 -2157,-1363l0 0z"/>
  <path class="fil0" d="M35887 34970c1088,-258 1974,507 2157,1363 232,1081 -515,1946 -1375,2130 -2297,490 -3076,-2947 -782,-3493l0 0zm-900 -2580c-1020,0 -1529,-75 -2342,362 -525,282 -1066,826 -1320,1433 -246,590 -153,1833 -153,2551 0,674 -87,2073 126,2625 242,622 772,1099 1325,1381 812,413 1433,340 2412,340l13618 0 0 -8692 -13666 0 0 0z"/>
  <polygon class="fil6" points="46769,32196 48798,32196 46769,31038 "/>
  <polygon class="fil0" points="30786,22635 30835,22635 30794,22579 "/>
  <circle class="fil7" cx="36317" cy="36748" r="1391"/>
 </g>
</svg>
