<?xml version="1.0" encoding="UTF-8"?>
<!DOCTYPE svg PUBLIC "-//W3C//DTD SVG 1.0//EN" "http://www.w3.org/TR/2001/REC-SVG-20010904/DTD/svg10.dtd">
<!-- Creator: CorelDRAW X7 -->
<svg xmlns="http://www.w3.org/2000/svg" xml:space="preserve" width="59px" height="59px" version="1.0" style="shape-rendering:geometricPrecision; text-rendering:geometricPrecision; image-rendering:optimizeQuality; fill-rule:evenodd; clip-rule:evenodd"
viewBox="0 0 59000 59000"
 xmlns:xlink="http://www.w3.org/1999/xlink">
 <defs>
  <style type="text/css">
   <![CDATA[
    .fil0 {fill:#B2B3B3}
    .fil1 {fill:#949494}
    .fil2 {fill:#B2B3B3}
   ]]>
  </style>
 </defs>
 <g id="Layer_x0020_1">
  <metadata id="CorelCorpID_0Corel-Layer"/>
  <path class="fil0" d="M31595 33468c-1978,3 -4064,2 -6183,2 9,-221 0,-7460 0,-8407 2238,-2 3317,0 6188,3 -11,2196 -3,6672 -5,8402l0 0zm-15247 -7530c3,3889 -1,7372 -1,10059l24639 0c-44,-2054 -27,-6504 -9,-10049 -3539,-3311 -8358,-7821 -12317,-11531 -378,384 -11333,10608 -12312,11521l0 0z"/>
  <path class="fil0" d="M35157 10009l18 6389c-2245,-2100 -4548,-4265 -6817,-6382 -613,567 -11700,10868 -12924,12091 0,319 0,1344 0,2616 1411,-1342 10312,-9496 12914,-12084 2529,2402 12118,11353 13306,12451 2,-1194 4,-2032 4,-2626 -979,-915 -1848,-1729 -3019,-2824 -1,-1354 -2,-7695 -2,-9631 -1445,-968 -2036,-968 -3480,0l0 0z"/>
  <path class="fil1" d="M10943 37040l0 8887c275,-132 855,-247 1198,-355 393,-125 716,-240 1181,-372 1819,-516 2702,-1122 4582,-109 4289,2313 5695,2639 10654,3322 2808,387 2594,492 5453,-470 3189,-1072 4430,-1329 7675,-2937 1297,-642 5368,-3105 6649,-3962 974,-653 1604,-1048 1604,-2279 0,-1111 -1424,-1728 -3242,-998 -376,151 -893,399 -1245,482 281,-586 -722,-1957 -3278,-605 0,-1152 -1047,-1122 -1811,-1122 -870,0 -2113,748 -2791,1092 -455,231 -2428,1233 -2558,1411 1547,129 3762,1999 2359,4430 -612,1062 -1611,1180 -2705,1177 -3586,-8 -6132,543 -9606,-1004 -834,-372 -1252,-654 -1843,-1350 -336,-396 -1021,-1508 -1147,-2046 262,176 508,314 805,491 1750,1043 3601,2067 5670,2353 1906,263 4445,178 6468,92 882,-38 1373,-559 1251,-1333 -141,-904 -539,-1201 -1275,-1493 -1992,-793 -4677,-478 -6411,-1613 -541,-354 -993,-871 -1503,-1259 -4065,-3102 -7235,-3946 -12349,-2253 -669,221 -1335,509 -1945,817 -650,328 -1277,629 -1840,1006l0 0z"/>
  <path class="fil2" d="M29565 384c16112,0 29173,13061 29173,29173 0,16111 -13061,29173 -29173,29173 -16112,0 -29173,-13062 -29173,-29173 0,-16112 13061,-29173 29173,-29173zm0 1808c15113,0 27364,12251 27364,27365 0,15113 -12251,27364 -27364,27364 -15114,0 -27364,-12251 -27364,-27364 0,-15114 12250,-27365 27364,-27365z"/>
 </g>
</svg>
