<?xml version="1.0" encoding="UTF-8"?>
<!DOCTYPE svg PUBLIC "-//W3C//DTD SVG 1.0//EN" "http://www.w3.org/TR/2001/REC-SVG-20010904/DTD/svg10.dtd">
<!-- Creator: CorelDRAW X7 -->
<svg xmlns="http://www.w3.org/2000/svg" xml:space="preserve" width="59px" height="59px" version="1.0" style="shape-rendering:geometricPrecision; text-rendering:geometricPrecision; image-rendering:optimizeQuality; fill-rule:evenodd; clip-rule:evenodd"
viewBox="0 0 59000 59000"
 xmlns:xlink="http://www.w3.org/1999/xlink">
 <defs>
  <style type="text/css">
   <![CDATA[
    .fil1 {fill:#549834}
    .fil0 {fill:#B2B3B3}
    .fil2 {fill:#6BB536;fill-rule:nonzero}
   ]]>
  </style>
 </defs>
 <g id="Layer_x0020_1">
  <metadata id="CorelCorpID_0Corel-Layer"/>
  <path class="fil0" d="M29515 1047c15914,0 28814,12899 28814,28813 0,15913 -12900,28813 -28814,28813 -15913,0 -28813,-12900 -28813,-28813 0,-15914 12900,-28813 28813,-28813zm0 1786c14927,0 27027,12100 27027,27027 0,14927 -12100,27027 -27027,27027 -14927,0 -27026,-12100 -27026,-27027 0,-14927 12099,-27027 27026,-27027z"/>
  <path class="fil1" d="M19158 13310c878,526 1355,1477 1381,2526l16443 -2c3349,-1 6336,902 6392,6896l0 16917c0,0 605,6086 -3538,6086l-17087 -4c-3516,-2 -7151,-308 -7198,-6041l76 -14443c-1458,9 -2494,-322 -3307,-1233l-89 16116c-22,3836 1268,8843 10316,8810 9073,15 12405,-5 17843,20 3005,4 6180,-986 6166,-8112l66 -18289c13,-3710 -1373,-9283 -7025,-9278 -1289,-11 -20439,31 -20439,31l0 0z"/>
  <path class="fil1" d="M20541 18619c-3,515 -5,3217 3,6281l19608 3 2 -3438c-1,-744 -412,-2848 -3313,-2848l-16300 2 0 0z"/>
  <path class="fil1" d="M21068 28021l2343 0c445,-1 1099,157 1111,1051l1 3603c1,516 -515,839 -1361,841l-2114 0c-361,0 -1408,1 -1409,-864l-1 -3605c0,-891 640,-1026 1430,-1026l0 0z"/>
  <path class="fil1" d="M37898 27915l2344 -1c444,0 1098,157 1110,1050l1 3605c0,515 -514,838 -1360,839l-2115 0c-361,0 -1408,1 -1409,-864l-1 -3604c0,-891 641,-1026 1430,-1025z"/>
  <path class="fil1" d="M29632 28063l2344 0c445,0 1098,157 1110,1050l1 3604c0,515 -514,839 -1360,840l-2115 0c-361,0 -1408,1 -1409,-864l-1 -3605c0,-891 641,-1025 1430,-1025z"/>
  <path class="fil1" d="M21026 36503l2344 -1c445,0 1098,157 1110,1050l1 3605c2,516 -514,838 -1360,840l-2115 -1c-361,0 -1407,1 -1409,-864l-1 -3604c0,-891 641,-1025 1430,-1025l0 0z"/>
  <path class="fil1" d="M37857 36396l2343 -1c445,0 1099,157 1111,1051l1 3604c0,516 -515,839 -1361,840l-2114 -1c-361,0 -1408,2 -1409,-863l-1 -3606c0,-891 640,-1024 1430,-1024l0 0z"/>
  <path class="fil1" d="M29591 36545l2343 -2c445,0 1099,157 1111,1051l1 3605c0,515 -515,837 -1361,840l-2114 -1c-361,0 -1408,2 -1409,-864l-1 -3605c-1,-891 640,-1024 1430,-1024l0 0z"/>
  <path class="fil2" d="M19275 19592l-6163 0c37,1259 315,2216 843,2867 524,651 1278,975 2256,975 313,0 2451,3 2498,3l1 1474c-1160,0 -1799,2 -2789,2 -1560,0 -2732,-481 -3519,-1450 -787,-967 -1179,-2411 -1179,-4332 0,-1789 381,-3213 1142,-4270 763,-1056 1784,-1586 3073,-1586 1179,0 2120,471 2819,1414 700,938 1051,2204 1051,3791 0,339 0,582 -3,725 -4,143 -14,272 -30,387l0 0zm-1746 -1303l0 -85c0,-1122 -179,-1977 -535,-2565 -358,-589 -875,-884 -1556,-884 -707,0 -1257,295 -1645,880 -392,584 -625,1468 -702,2654l4438 0 0 0z"/>
 </g>
</svg>
