<?xml version="1.0" encoding="UTF-8"?>
<!DOCTYPE svg PUBLIC "-//W3C//DTD SVG 1.0//EN" "http://www.w3.org/TR/2001/REC-SVG-20010904/DTD/svg10.dtd">
<!-- Creator: CorelDRAW X7 -->
<svg xmlns="http://www.w3.org/2000/svg" xml:space="preserve" width="591px" height="591px" version="1.0" style="shape-rendering:geometricPrecision; text-rendering:geometricPrecision; image-rendering:optimizeQuality; fill-rule:evenodd; clip-rule:evenodd"
viewBox="0 0 591000 591000"
 xmlns:xlink="http://www.w3.org/1999/xlink">
 <defs>
  <style type="text/css">
   <![CDATA[
    .fil3 {fill:#6BB536}
    .fil0 {fill:#6BB536}
    .fil2 {fill:#549834}
    .fil5 {fill:#6BB536}
    .fil1 {fill:#7DBA32}
    .fil6 {fill:#EBECEC}
    .fil4 {fill:#FEFEFE}
   ]]>
  </style>
 </defs>
 <g id="Layer_x0020_1">
  <metadata id="CorelCorpID_0Corel-Layer"/>
  <path class="fil0" d="M346007 358192l-132691 -41046c-17474,-5404 -24120,-16853 -18833,-33945l56563 -182862c4818,-15570 16165,-23120 33549,-17743l135019 41766c12158,3761 19329,12297 19681,22593 97,2835 -1301,8690 -2344,12062l-55904 180722c-2738,8855 -4852,13119 -12508,17824 -6083,3741 -15023,2952 -22532,629zm-116089 -272005l-60865 196764c-3956,12791 1285,29753 10540,39705 2323,2498 7830,8157 11887,9413l164121 50768c4020,1242 11315,-252 14701,-967 13526,-2861 27572,-14074 31544,-26909l60866 -196763c3956,-12791 -1284,-29754 -10540,-39706 -2324,-2498 -7832,-8158 -11890,-9413l-164118 -50766c-6780,-2098 -21397,2319 -27478,6056 -8221,5053 -15779,12151 -18768,21818l0 0z"/>
  <path class="fil1" d="M263030 111077l-4796 15505c-3116,10073 5023,23229 15995,26625l114069 35285c10973,3394 25120,-2870 28235,-12943 2910,-9408 6129,-15336 4638,-23186 -682,-3593 -1023,-3763 -2833,-6866 -1649,-2828 -1609,-3285 -4329,-5701 -1775,-1575 -4506,-3916 -7260,-4767l-117561 -36365c-4908,-1519 -11522,77 -15540,1984 -4048,1921 -9229,5935 -10618,10429l0 0z"/>
  <path class="fil0" d="M343033 260609l-18027 58279c-2067,6683 1589,15138 8669,17328 11065,3425 19721,7929 27161,4040 2932,-1530 5241,-3657 6488,-7691l18691 -60419c1068,-3448 -221,-7711 -1809,-10091 -4395,-6593 -12762,-7891 -21740,-10667 -8766,-2712 -16940,1168 -19432,9221l-1 0z"/>
  <path class="fil0" d="M270282 289659c-2485,8027 -5987,14977 -2760,21837 3662,7780 13392,8987 24086,12294 6774,2094 15263,-1934 17188,-8158 2920,-9437 7315,-17541 2659,-24527 -4397,-6592 -12764,-7890 -21742,-10668 -8765,-2711 -16940,1169 -19431,9222l0 0z"/>
  <path class="fil0" d="M299390 195554c-2483,8027 -5986,14978 -2758,21838 3660,7779 13392,8987 24084,12294 6774,2095 15265,-1934 17189,-8158 2920,-9438 7316,-17541 2659,-24525 -4396,-6593 -12765,-7892 -21742,-10669 -8764,-2713 -16940,1168 -19432,9221l0 -1z"/>
  <path class="fil0" d="M284835 242606c-2482,8028 -5986,14978 -2758,21838 3660,7780 13392,8986 24083,12294 6775,2095 15266,-1935 17191,-8157 2920,-9438 7315,-17542 2656,-24528 -4395,-6592 -12762,-7889 -21740,-10668 -8765,-2712 -16941,1170 -19432,9222l0 -1z"/>
  <path class="fil0" d="M357589 213557c-2483,8027 -5987,14978 -2760,21838 3662,7779 13394,8986 24086,12293 6774,2095 15263,-1934 17190,-8157 2918,-9439 7314,-17541 2657,-24526 -4396,-6594 -12762,-7893 -21742,-10669 -8763,-2712 -16940,1168 -19431,9221l0 0z"/>
  <path class="fil0" d="M212083 271656c-2484,8026 -5986,14977 -2759,21837 3661,7780 13392,8987 24084,12293 6774,2097 15265,-1932 17190,-8157 2920,-9437 7316,-17540 2656,-24527 -4395,-6592 -12762,-7891 -21738,-10668 -8767,-2711 -16943,1169 -19433,9222z"/>
  <path class="fil0" d="M241193 177551c-2485,8029 -5987,14978 -2759,21838 3660,7779 13391,8986 24085,12294 6774,2095 15264,-1934 17189,-8157 2920,-9439 7315,-17541 2658,-24526 -4397,-6593 -12764,-7892 -21741,-10670 -8766,-2711 -16942,1170 -19431,9222l-1 -1z"/>
  <path class="fil0" d="M226638 224602c-2484,8029 -5987,14979 -2760,21838 3662,7781 13393,8987 24086,12295 6774,2096 15264,-1934 17189,-8157 2919,-9438 7316,-17541 2657,-24526 -4395,-6594 -12762,-7893 -21741,-10669 -8764,-2712 -16941,1169 -19431,9221l0 -2z"/>
  <path class="fil2" d="M157991 256132l2925 0 0 232620 -2925 0 0 -232620zm25361 -9265c-4071,0 -9649,228 -14978,68 -5470,-164 -11812,-32 -17043,-1348 -6219,-1538 -13822,-6036 -13822,-6036l0 188730c0,13413 -1752,40008 2816,50821 11427,27053 35462,22817 58630,22817 62910,0 125821,0 188729,0 12648,0 41480,1465 51551,-2095 11970,-4233 22159,-15306 24201,-30017 830,-5968 325,-44015 325,-53231 -34299,0 -68597,0 -102898,0 -16058,0 -32925,1488 -44945,-6748 -12455,-8535 -10162,-23068 -10162,-41043 0,-18971 -1543,-31473 11422,-40261 11776,-7982 28608,-6557 44661,-6557 34136,0 68273,0 102410,0l0 -75100 -280898 0 1 0z"/>
  <path class="fil3" d="M294856 5544c160835,0 291217,130382 291217,291217 0,160835 -130382,291218 -291217,291218 -160835,0 -291218,-130383 -291218,-291218 0,-160835 130383,-291217 291218,-291217zm0 18053c150864,0 273164,122301 273164,273164 0,150862 -122300,273163 -273164,273163 -150864,0 -273163,-122299 -273163,-273163 0,-150863 122299,-273164 273163,-273164z"/>
  <polygon class="fil4" points="157991,488752 160917,488752 160917,256132 157991,256132 "/>
  <path class="fil5" d="M344282 369760c0,-5755 1832,-8560 4376,-11719 8317,-10333 28787,-5285 28787,11230 0,4565 -2204,8205 -4305,10814 -8830,10961 -28856,4024 -28856,-10325l-2 0zm12502 -18314c-23163,5506 -15297,40223 7889,35278 8696,-1854 16236,-10593 13899,-21511 -1851,-8654 -10801,-16376 -21788,-13767l0 0z"/>
  <path class="fil5" d="M356784 351446c10987,-2609 19937,5113 21788,13766 2337,10919 -5203,19658 -13899,21512 -23186,4944 -31052,-29772 -7889,-35278l0 0zm-9088 -26065c-10295,0 -15441,-749 -23651,3659 -5303,2850 -10764,8347 -13326,14469 -2492,5963 -1549,18527 -1549,25763 0,6812 -881,20946 1279,26520 2435,6285 7791,11090 13379,13940 8192,4176 14467,3431 24355,3431l137524 0 0 -87781 -138012 0 1 -1z"/>
  <polygon class="fil5" points="466689,323431 487171,323431 466689,311725 "/>
  <polygon class="fil5" points="305269,226872 305756,226872 305350,226302 "/>
  <circle class="fil6" cx="361129" cy="369398" r="14047"/>
 </g>
</svg>
