<?xml version="1.0" encoding="UTF-8"?>
<!DOCTYPE svg PUBLIC "-//W3C//DTD SVG 1.0//EN" "http://www.w3.org/TR/2001/REC-SVG-20010904/DTD/svg10.dtd">
<!-- Creator: CorelDRAW X7 -->
<svg xmlns="http://www.w3.org/2000/svg" xml:space="preserve" width="20px" height="20px" version="1.0" style="shape-rendering:geometricPrecision; text-rendering:geometricPrecision; image-rendering:optimizeQuality; fill-rule:evenodd; clip-rule:evenodd"
viewBox="0 0 2000 2000"
 xmlns:xlink="http://www.w3.org/1999/xlink">
 <defs>
  <style type="text/css">
   <![CDATA[
    .fil0 {fill:#6BB536}
   ]]>
  </style>
 </defs>
 <g id="Layer_x0020_1">
  <metadata id="CorelCorpID_0Corel-Layer"/>
  <path class="fil0" d="M223 409l1555 0c123,-5 122,-263 0,-264l-1555 1c-126,2 -116,264 0,263z"/>
  <path class="fil0" d="M223 778l1556 0c124,-4 122,-263 0,-264l-1556 1c-125,3 -115,264 0,263z"/>
  <path class="fil0" d="M221 1163l1556 0c123,-5 122,-263 0,-265l-1556 2c-125,2 -115,264 0,263z"/>
  <polygon class="fil0" points="1022,1831 1741,1301 275,1302 "/>
 </g>
</svg>
