<?xml version="1.0" encoding="UTF-8"?>
<!DOCTYPE svg PUBLIC "-//W3C//DTD SVG 1.0//EN" "http://www.w3.org/TR/2001/REC-SVG-20010904/DTD/svg10.dtd">
<!-- Creator: CorelDRAW X7 -->
<svg xmlns="http://www.w3.org/2000/svg" xml:space="preserve" width="110px" height="110px" version="1.0" style="shape-rendering:geometricPrecision; text-rendering:geometricPrecision; image-rendering:optimizeQuality; fill-rule:evenodd; clip-rule:evenodd"
viewBox="0 0 11000 11000"
 xmlns:xlink="http://www.w3.org/1999/xlink">
 <defs>
  <style type="text/css">
   <![CDATA[
    .fil0 {fill:#6BB536}
    .fil1 {fill:#FEFEFE}
   ]]>
  </style>
 </defs>
 <g id="Layer_x0020_1">
  <metadata id="CorelCorpID_0Corel-Layer"/>
  <g id="_255537678992">
   <ellipse class="fil0" cx="5502" cy="5512" rx="5426" ry="5451"/>
   <path class="fil1" d="M2827 8641c0,-2347 0,-1085 0,-2952 0,-783 707,-1414 1414,-1414 101,0 75,0 252,0 76,177 606,1136 707,1338l0 -1439 454 0c0,0 0,328 0,631 0,253 0,480 0,808 126,-253 580,-1111 707,-1338 0,0 151,0 378,0 808,0 1338,707 1338,1464l0 2902c0,631 -858,808 -858,-76l0 -2826 -227 0 0 3457 -3054 0 0 -3457 -227 0 0 1741c0,303 0,455 0,631l0 631c0,631 -884,530 -884,-101l0 0 0 0 0 0z"/>
   <path class="fil1" d="M5200 1979c0,151 -152,151 -152,0l0 -783c-404,76 -807,707 -883,1262 -152,0 -227,0 -303,0 0,0 0,151 0,227l3130 0 0 -227 -329 0c-75,-631 -378,-1035 -858,-1262l0 783c0,151 -151,151 -151,75l0 -858c-76,-176 -379,-176 -454,0 0,76 0,303 0,783l0 0 0 0z"/>
   <path class="fil1" d="M4493 3089c0,454 353,934 934,934 530,0 934,-480 934,-934l0 -177 -1868 0 0 177z"/>
  </g>
 </g>
</svg>
